<svg width="85" height="85" viewBox="0 0 85 85" fill="none" xmlns="http://www.w3.org/2000/svg">
<path d="M73.9955 38.2975H53.125V21.688H46.2946C48.4089 19.1142 49.5449 15.9819 49.5303 12.7661C49.5303 7.98397 47.0488 3.49058 43.0542 1.03982L41.3595 0L39.665 1.03982C35.6696 3.49093 33.1889 7.98414 33.1889 12.7661C33.1747 15.9819 34.311 19.1142 36.4255 21.6878H28.8393V38.2973H11.0045C8.08692 38.3003 5.28981 39.3585 3.22679 41.2398C1.16377 43.121 0.00331431 45.6717 0 48.3322V79.4635C0.00180785 80.9314 0.642055 82.3386 1.78028 83.3766C2.9185 84.4145 4.46174 84.9984 6.07143 85H78.9286C80.5383 84.9984 82.0815 84.4145 83.2197 83.3766C84.3579 82.3386 84.9982 80.9314 85 79.4635V48.3323C84.9967 45.6719 83.8362 43.1212 81.7732 41.2399C79.7102 39.3587 76.9131 38.3005 73.9955 38.2975V38.2975ZM41.3595 7.06387C42.6857 8.56633 43.4589 10.6048 43.4589 12.7663C43.4589 14.9278 42.6857 16.9664 41.3595 18.4687C40.0335 16.9664 39.2603 14.9278 39.2603 12.7661C39.2603 10.6045 40.0335 8.56633 41.3595 7.06387ZM34.9107 27.2245H47.0536V38.2975H34.9107V27.2245ZM6.07143 48.3323C6.07294 47.1397 6.59315 45.9963 7.51795 45.153C8.44274 44.3097 9.6966 43.8353 11.0045 43.8339H73.9955C75.3034 43.8353 76.5573 44.3097 77.4821 45.153C78.4069 45.9963 78.9271 47.1397 78.9286 48.3323V53.7957L74.8304 55.4447C74.0288 55.7662 73.1628 55.9323 72.2871 55.9323C71.4114 55.9323 70.5453 55.7662 69.7438 55.4447L62.6116 52.5749L55.4777 55.4445C54.6761 55.7661 53.81 55.9322 52.9343 55.9322C52.0586 55.9322 51.1925 55.7661 50.391 55.4445L43.2589 52.5747L36.125 55.4443C35.3235 55.766 34.4573 55.9321 33.5816 55.9321C32.7059 55.9321 31.8398 55.766 31.0383 55.4443L23.9063 52.5749L16.7736 55.4443C15.9721 55.766 15.106 55.9321 14.2303 55.9321C13.3546 55.9321 12.4885 55.766 11.6869 55.4443L6.07143 53.1854V48.3323ZM78.9286 79.4635H6.07143V59.2368L9.23578 60.5099C10.8097 61.1414 12.5104 61.4675 14.2299 61.4675C15.9494 61.4675 17.6502 61.1414 19.224 60.5099L23.9063 58.6261L28.5887 60.5099C30.1625 61.1414 31.8632 61.4675 33.5827 61.4675C35.3022 61.4675 37.0029 61.1414 38.5767 60.5099L43.2589 58.6261L47.941 60.5099C49.5148 61.1414 51.2154 61.4675 52.9349 61.4675C54.6543 61.4675 56.355 61.1414 57.9288 60.5099L62.6116 58.6261L67.2938 60.51C68.8676 61.1415 70.5683 61.4676 72.2877 61.4676C74.0071 61.4676 75.7077 61.1415 77.2815 60.51L78.9308 59.8465L78.9324 79.4635H78.9286Z" fill="#16BF78"/>
</svg>
