<svg width="85" height="85" viewBox="0 0 85 85" fill="none" xmlns="http://www.w3.org/2000/svg">
<path d="M51.3665 4.59L42.4999 0L33.6333 4.59L23.7627 6.08813L19.2896 15.0131L12.1868 22.0256L13.8124 31.875L12.1868 41.7244L19.2896 48.7369L23.7627 57.6619L33.6333 59.16L42.4999 63.75L51.3665 59.16L61.2371 57.6619L65.7102 48.7369L72.813 41.7244L71.1874 31.875L72.813 22.0256L65.7102 15.0131L61.2371 6.08813L51.3665 4.59ZM57.7202 10.9278L61.354 18.1794L67.1233 23.8744L65.8058 31.875L67.1233 39.8756L61.354 45.5706L57.7202 52.8222L49.6983 54.0387L42.4999 57.7681L35.3015 54.0387L27.2796 52.8222L23.6458 45.5706L17.8765 39.8756L19.1993 31.875L17.8711 23.8744L23.6458 18.1794L27.2796 10.9278L35.3015 9.71125L42.4999 5.98188L49.7036 9.71125L57.7202 10.9278Z" fill="#16BF78"/>
<path d="M21.25 62.6556V85L42.5 79.6875L63.75 85V62.6556L53.0294 64.2813L42.5 69.7319L31.9706 64.2813L21.25 62.6556Z" fill="#16BF78"/>
</svg>
