<svg width="85" height="85" viewBox="0 0 85 85" fill="none" xmlns="http://www.w3.org/2000/svg">
<path d="M67.2917 14.1667H52.4875C51.7623 12.0964 50.4116 10.3026 48.6224 9.03347C46.8331 7.76435 44.6937 7.08264 42.5 7.08264C40.3063 7.08264 38.1669 7.76435 36.3776 9.03347C34.5884 10.3026 33.2377 12.0964 32.5125 14.1667H17.7083C15.8314 14.1723 14.033 14.9204 12.7059 16.2475C11.3787 17.5747 10.6306 19.3731 10.625 21.25V70.8334C10.6306 72.7103 11.3787 74.5087 12.7059 75.8358C14.033 77.163 15.8314 77.9111 17.7083 77.9167H67.2917C69.1686 77.9111 70.967 77.163 72.2942 75.8358C73.6213 74.5087 74.3694 72.7103 74.375 70.8334V21.25C74.3694 19.3731 73.6213 17.5747 72.2942 16.2475C70.967 14.9204 69.1686 14.1723 67.2917 14.1667ZM42.5 14.1667C43.2005 14.1667 43.8852 14.3744 44.4676 14.7636C45.0501 15.1527 45.504 15.7059 45.7721 16.353C46.0401 17.0002 46.1103 17.7123 45.9736 18.3993C45.837 19.0863 45.4996 19.7174 45.0043 20.2127C44.509 20.708 43.878 21.0453 43.1909 21.182C42.5039 21.3186 41.7918 21.2485 41.1447 20.9804C40.4975 20.7124 39.9444 20.2584 39.5552 19.676C39.166 19.0936 38.9583 18.4088 38.9583 17.7084C38.9611 16.7699 39.3352 15.8707 39.9988 15.2071C40.6623 14.5435 41.5616 14.1695 42.5 14.1667ZM35.4167 31.875L45.2979 41.7704L54.2229 32.8454L49.5833 28.3334H63.75V42.5L59.2308 37.8569L45.305 51.7934L35.4167 41.8979L26.2579 51.0496L21.25 46.0417L35.4167 31.875ZM67.2917 67.2917H17.7083V60.2084H67.2917V67.2917Z" fill="#16BF78"/>
</svg>
