<svg width="20" height="20" viewBox="0 0 20 20" fill="none" xmlns="http://www.w3.org/2000/svg">
<path d="M17.7273 13.125V15H16.3636V13.125H17.7273ZM15.9091 6.875H14.5455V6.25C14.5455 5.25544 14.8328 4.30161 15.3443 3.59835C15.8557 2.89509 16.5494 2.5 17.2727 2.5C17.996 2.5 18.6897 2.89509 19.2012 3.59835C19.7127 4.30161 20 5.25544 20 6.25C20 7.4625 19.5455 8.6 18.8273 9.2625L18.5545 9.5C18.0364 10 17.7273 10.7625 17.7273 11.625V11.875H16.3636V11.625C16.3636 10.1375 16.9091 8.75 17.8091 7.9375L18.0727 7.7C18.4273 7.375 18.6364 6.8375 18.6364 6.25C18.6364 5.75272 18.4927 5.27581 18.237 4.92417C17.9812 4.57254 17.6344 4.375 17.2727 4.375C16.9111 4.375 16.5642 4.57254 16.3085 4.92417C16.0528 5.27581 15.9091 5.75272 15.9091 6.25V6.875ZM7.27273 11.25C9.7 11.25 14.5455 12.925 14.5455 16.25V20H0V16.25C0 12.925 4.84545 11.25 7.27273 11.25ZM7.27273 0C8.23715 0 9.16207 0.526784 9.84403 1.46447C10.526 2.40215 10.9091 3.67392 10.9091 5C10.9091 6.32608 10.526 7.59785 9.84403 8.53553C9.16207 9.47322 8.23715 10 7.27273 10C6.3083 10 5.38338 9.47322 4.70143 8.53553C4.01948 7.59785 3.63636 6.32608 3.63636 5C3.63636 3.67392 4.01948 2.40215 4.70143 1.46447C5.38338 0.526784 6.3083 0 7.27273 0M7.27273 13.625C4.57273 13.625 1.72727 15.45 1.72727 16.25V17.625H12.8182V16.25C12.8182 15.45 9.97273 13.625 7.27273 13.625ZM7.27273 2.375C6.76641 2.375 6.28082 2.65156 5.9228 3.14384C5.56477 3.63613 5.36364 4.30381 5.36364 5C5.36364 5.69619 5.56477 6.36387 5.9228 6.85616C6.28082 7.34844 6.76641 7.625 7.27273 7.625C7.77905 7.625 8.26463 7.34844 8.62266 6.85616C8.98068 6.36387 9.18182 5.69619 9.18182 5C9.18182 4.30381 8.98068 3.63613 8.62266 3.14384C8.26463 2.65156 7.77905 2.375 7.27273 2.375V2.375Z" fill="white"/>
</svg>
